# xmcd CD database file
#
# Track frame offsets:
#	150
#	17497
#	36032
#	53985
#
# Disc length: 942 seconds
#
# Revision: 0
# Processed by: cddbd v1.5.1PL2 Copyright (c) Steve Scherf et al.
# Submitted via: CDex 1.51
#
DISCID=2703ac04
DTITLE=北出菜奈 - SLAVE of KISS
DYEAR=2006
DGENRE=JPop
TTITLE0=KISS
TTITLE1=キスを下さい
TTITLE2=KISS or KISS (English Version)
TTITLE3=Sweet frozen kiss
EXTD=YEAR: 2006
EXTT0=
EXTT1=
EXTT2=
EXTT3=
PLAYORDER=
